<?xml version="1.0" encoding="UTF-8"?>
<svg id="Layer_10" xmlns="http://www.w3.org/2000/svg" viewBox="0 0 630 630">
  <defs>
    <style>
      .cls-1 {
        fill: #7790ed;
      }
    </style>
  </defs>
  <path class="cls-1" d="M439.52,215.06h133.09S500.24,39.74,333.64,47.44C167.03,55.13,56.47,126.12,37.01,232.17c-19.46,106.05,105.1,102.63,158.04,86.38,52.94-16.25,5.71,33.67-21.02,40.2s-117.56,61.58-112.11,106.9c5.29,44,112.79,115.56,225,118.02,77.85,1.71,394.91-169.3,285.68-165.19-49,1.84-135.42-.72-135.42-.72,0,0-49.83,111.18-122.23,121.44-79.08,11.21-141.7-109.47-127.68-140.26,14.01-30.79,63.78-60.01,44.34-83.46-19.43-23.45-44.34-17.46-49.79-32-5.45-14.54,29.58-142.82,45.93-165.06,18.83-25.6,21.8-50.46,87.2-44.47,65.4,5.99,134.69,122.3,124.57,141.11Z"/>
  <path class="cls-1" d="M288.08,584.03c-.39,0-.78,0-1.16-.01-50.56-1.11-106.23-16.96-152.74-43.48-42.1-24-69.91-52.69-72.58-74.85-3.17-26.38,25.97-54.06,43.63-68.22,25.04-20.07,54.61-35.63,68.73-39.08,17.24-4.21,41.62-25.56,44.5-36.31.53-1.98.32-3.52-.63-4.57-1.8-2-7.19-3.39-22.7,1.37-21.38,6.56-48.51,9.64-72.57,8.23-21.57-1.26-51.22-6.79-69.99-25.95-15.96-16.29-21.31-39.53-15.88-69.07,9.62-52.42,41.88-97.2,93.29-129.48,51.86-32.57,122.28-51.77,203.64-55.53,38.06-1.76,74.32,5.97,107.78,22.98,26.77,13.6,51.81,33.13,74.43,58.05,38.51,42.42,56.89,86.36,57.07,86.8l.21.5h-134.15l.29-.53c2.57-4.78-.1-16.32-7.33-31.69-10.78-22.91-28.66-48.41-47.84-68.21-16.65-17.2-42.17-38.21-69.15-40.68-54.91-5.02-65.49,11.49-78.88,32.39-2.49,3.89-5.06,7.91-8.04,11.95-8.91,12.12-22.31,53.52-31.08,85.3-11.3,40.96-17.25,72.87-14.8,79.41,2.48,6.61,9.12,8.89,17.52,11.79,9.7,3.34,21.76,7.49,32.21,20.11,12.5,15.08-3.11,32.46-19.64,50.86-9.6,10.69-19.53,21.73-24.65,32.99-6.3,13.85,3.42,46.68,22.61,76.36,9.01,13.93,24.15,33.51,45.07,47.63,19.67,13.28,39.75,18.59,59.67,15.76,20.59-2.92,52.57-16.47,88.06-64.44,21.24-28.71,33.8-56.53,33.92-56.81l.09-.2h.21c.86.03,86.97,2.55,135.4.73,12.53-.47,20.01,1.38,22.26,5.49,1.22,2.23.91,5.11-.9,8.55-11.15,21.13-77.15,61.14-137.6,91.42-34.6,17.33-68.34,32.16-97.58,42.9-31.32,11.5-55.71,17.55-70.69,17.55ZM211.62,314.95c3.21,0,5.44.69,6.67,2.07,1.13,1.25,1.39,3.03.79,5.27-3.19,11.88-28.84,32.86-44.98,36.8-14.06,3.43-43.52,18.94-68.49,38.96-17.54,14.06-46.5,41.53-43.37,67.55,1.29,10.69,8.72,23.29,21.51,36.44,12.78,13.14,30.32,26.24,50.72,37.87,46.43,26.47,101.99,42.29,152.45,43.4,14.79.32,39.56-5.73,71.63-17.5,29.22-10.73,62.94-25.55,97.52-42.87,60.36-30.23,126.22-70.14,137.31-91.13,1.69-3.2,2-5.84.91-7.83-2.11-3.88-9.42-5.61-21.68-5.14-47.3,1.78-130.5-.58-135.24-.72-1.18,2.59-13.59,29.26-33.91,56.74-12.5,16.91-25.52,30.81-38.68,41.33-16.47,13.16-33.22,21.02-49.79,23.37-20.07,2.84-40.29-2.49-60.09-15.86-21.01-14.19-36.21-33.84-45.25-47.82-19.64-30.37-29.17-62.78-22.66-77.08,5.17-11.36,15.13-22.45,24.77-33.17,16.31-18.15,31.71-35.3,19.63-49.89-10.34-12.47-22.31-16.6-31.93-19.91-8.57-2.95-15.33-5.28-17.92-12.19-2.89-7.71,5.34-45.68,14.78-79.88,8.79-31.83,22.23-73.34,31.2-85.54,2.96-4.03,5.53-8.03,8.01-11.91,13.51-21.09,24.19-37.75,79.46-32.69,27.16,2.49,52.81,23.6,69.53,40.87,19.23,19.85,37.16,45.42,47.97,68.4,7.08,15.05,9.81,26.57,7.57,31.84h132.05c-2.15-4.99-20.53-46.22-56.74-86.11-22.57-24.86-47.54-44.34-74.24-57.9-33.36-16.95-69.52-24.66-107.47-22.91-81.26,3.75-151.57,22.92-203.35,55.44-51.24,32.18-83.39,76.79-92.98,129.01-5.37,29.28-.1,52.3,15.69,68.41,18.63,19.01,48.12,24.5,69.58,25.76,24,1.41,51.05-1.66,72.37-8.2,7.07-2.17,12.63-3.25,16.66-3.25Z"/>
</svg>