<?xml version="1.0" encoding="UTF-8"?>
<svg id="Layer_8" xmlns="http://www.w3.org/2000/svg" viewBox="0 0 630 630">
  <defs>
    <style>
      .cls-1 {
        fill: #7790ed;
      }
    </style>
  </defs>
  <g>
    <path class="cls-1" d="M495.18,547.47c-.25-.3-.51-.59-.79-.86.21.33.48.62.79.86Z"/>
    <path class="cls-1" d="M496.24,546.41c-.25-.3-.51-.59-.79-.86-.14-.15-.3-.25-.48-.31-.18-.09-.37-.14-.58-.13l-.4.05c-.2.05-.37.14-.51.27-.11.07-.2.16-.27.27-.13.14-.22.31-.27.51l-.05.4c0,.27.07.52.2.76.09.14.19.26.29.39s.2.26.31.38c.22.24.48.43.74.63.17.11.36.17.56.18.2.04.4.04.6-.03.2-.05.37-.14.51-.27.16-.11.29-.25.39-.42l.15-.36c.07-.27.07-.53,0-.8l-.15-.36c-.13-.23-.31-.4-.54-.54,0,0-.02-.01-.02-.02l.3.23c-.22-.17-.43-.37-.6-.6l.23.3c-.06-.08-.12-.16-.17-.24l-2.36,1.82c.28.27.54.56.79.86.14.15.3.25.48.31.18.09.37.14.58.13.21,0,.4-.04.58-.13.19-.06.35-.16.48-.31l.23-.3c.14-.23.2-.49.2-.76l-.05-.4c-.07-.25-.2-.47-.39-.66Z"/>
  </g>
  <g>
    <path class="cls-1" d="M593.11,558.68c-.57-2.5-1.14-5-1.77-7.49-.3-1.2-.62-2.39-.96-3.58-.3-1.06-.54-2.21-1.26-3.06-.23-.27-.51-.29-.75-.17-5.95-20.92-98.7-332.72-292.47-157.46,0,0-61.38-60.81,111.9-75.02,0,0,99.95,4.55,32.59-135.26-67.35-139.8-214.74-102.29-214.74-102.29L36.61,559.45h112.76l159.12-398.44s59.28,100.61-25.63,169.08c-59.55,48.02,15.85,91.38,28.79,93.77,55.4,10.23,125.88,34.31,160.97,97.18,3.08,5.51,6.63,10.24,10.54,14.27,1.1,2.05,2.32,4.05,3.54,6.02,2.52,4.07,5.03,8.14,7.55,12.21.3.67.63,1.32.98,1.96-.02,0-.04,0-.05,0-.18.06-.34.17-.43.35-.02.06-.05.12-.07.18-.03.13-.03.27,0,.4.04.26.21.51.38.68.02.02.05.04.07.06.19.34.39.68.61,1,.05.12.1.23.16.35.04.08.11.16.19.22.11.21.3.37.6.37.05,0,.08-.02.12-.03.04,0,.08-.01.12-.03.04-.01.08-.03.11-.05,0,0,.01,0,.02,0,.11,0,.23-.03.32-.09.15-.1.29-.26.33-.45.04-.18.04-.4-.06-.56.02,0,.05,0,.07,0,1.97.04,3.94.08,5.91.11l-7.2-1.84s-.01-.01-.02-.02c-.01-.02-.02-.04-.03-.05-.03-.03-.05-.07-.08-.1.36-.13.82-.14.89-.51.03-.14-.02-.28-.08-.41-.56-1.39-1.5-2.58-2.38-3.77-1.19-1.6-2.29-3.26-3.32-4.97l5.96,8.21c.13.64.24,1.28.32,1.92.33.06.64-.04.91-.23.61.67,1.62.86,2.53.96,3.03.34,6.07.47,9.12.4.67.66,1.56,1.06,2.57,1.07,5.12.01,10.24.03,15.36.04,1.58.54,3.15.14,4.75.05.32-.02.63-.03.95-.03.63.04,1.25.09,1.87.17.02,0,.03,0,.05,0,.51.17,1.03.19,1.54.07.37-.02.73-.11,1.07-.27,2.53.03,5.06.07,7.58.1,1.25.02,2.51.06,3.76.02,3.04.37,6.13.13,9.19.08,3.15-.05,6.29-.03,9.43.26.46.04.92-.04,1.35-.22,1.93.25,3.89.15,5.83.12,1.18-.02,2.36-.05,3.55-.08.78.3,1.64.33,2.47.33,1.03,0,2.05,0,3.08-.01.41,0,.82-.08,1.22-.22.59.04,1.18.09,1.76.16.32.04.67-.02,1.02-.13.13.16.29.3.49.34.21.03.43.07.64.06.14,0,.28-.03.43-.04.21-.03.43-.05.64-.04.07.02.14.03.2.06.17.05.34.05.51,0,.11-.03.2-.08.29-.15.03.06.06.11.1.16,0,0,0,0,0,.01,0,0,0,0,.01.01.12.15.29.25.53.25.61,0,.81-.65.62-1.1ZM495.46,555.47s-.06,0-.09,0c0-.06-.02-.12-.02-.18.04.06.07.12.11.18ZM492.88,543.49l-.08-.03c.64,1.01,1.32,1.99,2.04,2.94.12.37.27.73.47,1.06.01.04.03.08.04.13-.06-.04-.12-.08-.18-.12.09.11.17.22.26.33.08.18.18.34.3.49,0,0,0,0,0,0-1.52-1.46-2.72-3.28-3.51-5.28.22.15.44.32.66.47ZM496.63,549.66c.16.32.3.64.44.97,0,.08.02.15.03.23-.16-.17-.32-.34-.48-.51l.02-.69ZM492.73,549.38c.23.83.51,1.64.82,2.44l-5.08-9.5,2.32,3.19,1.95,3.87ZM487.82,539.66c.86.73,1.74,1.42,2.63,2.09,1.17,1.87,2.22,3.82,3.26,5.77.94,1.76,1.89,3.52,2.83,5.28,0-.36.02-.72.03-1.09.31.91.57,1.85.77,2.79-2.85-5.17-5.85-10.29-9.53-14.85Z"/>
    <g>
      <path class="cls-1" d="M594.56,558.28c-.87-3.84-1.74-7.69-2.84-11.47-.57-1.96-1.32-4.26-3.74-3.88l1.85,1.05c-3.88-13.64-8.62-27.05-13.73-40.27-9.63-24.91-20.92-49.27-34.5-72.28-15.01-25.43-33.01-49.87-55.87-68.82-21.87-18.13-48.48-30.38-77.26-30.43-37.23-.06-71.45,19.03-99.7,41.78-4.75,3.83-9.38,7.81-13.91,11.9h2.12c-3.37-3.34-6.15-7.74-7.97-12.29-3.75-9.35-2.25-19.13,4.48-26.81,5.66-6.46,13.38-10.88,21.12-14.38,13.04-5.89,27.15-9.4,41.15-12.14,9.73-1.91,19.55-3.37,29.4-4.56,7.56-.91,15.28-2.06,22.89-2.26,2.69-.07,5.34-.13,8.01-.44,11.85-1.4,23.6-5.58,32.63-13.58,14.25-12.63,17.73-32.24,16.18-50.43-1.38-16.14-6.05-31.9-11.82-46.97-7.2-18.81-15.98-37.25-27.28-53.96-17.4-25.72-40.83-47.02-68.81-60.66-22.34-10.89-46.83-16.83-71.58-18.55-16.69-1.16-33.57-.48-50.09,2.15-3.1.49-6.74.74-9.7,1.87-1.39.53-1.64,1.85-2.14,3.14-3.05,7.82-6.09,15.63-9.14,23.45-5.86,15.05-11.73,30.1-17.59,45.14-7.89,20.24-15.77,40.47-23.66,60.71-9.12,23.4-18.24,46.8-27.35,70.19s-19.12,49.06-28.68,73.59c-9.21,23.63-18.42,47.27-27.63,70.9-8.07,20.71-16.14,41.41-24.21,62.12-6.14,15.75-12.28,31.51-18.42,47.26-3.42,8.77-6.83,17.54-10.25,26.31-.44,1.13-.88,2.27-1.32,3.4-.36.93.55,1.9,1.45,1.9h112.76c.72,0,1.2-.48,1.45-1.1,1.42-3.55,2.84-7.11,4.26-10.66,3.86-9.67,7.72-19.34,11.59-29.01,5.71-14.3,11.42-28.6,17.13-42.9,6.97-17.45,13.94-34.9,20.9-52.35,7.63-19.11,15.26-38.22,22.9-57.33,7.67-19.2,15.34-38.41,23.01-57.61,7.18-17.99,14.37-35.98,21.55-53.97,6.07-15.2,12.14-30.41,18.22-45.61,4.37-10.93,8.73-21.87,13.1-32.8l4.08-10.2c.68-1.7,1.72-3.54,2.13-5.33.05-.22.18-.45.27-.66l-2.74.36c3.05,5.18,5.5,10.78,7.75,16.34,5.36,13.28,9.23,27.26,11.04,41.48,2.3,18.08,1.2,36.61-4.47,53.99-7.13,21.86-21.32,40.39-38.99,54.87-14.43,11.83-27.38,28.23-22.79,48.01,3.45,14.88,15.02,26.8,26.89,35.66,5.2,3.88,10.75,7.36,16.6,10.16,5.02,2.4,9.82,3.33,15.28,4.43,20.62,4.18,40.98,9.92,60.44,17.94,21.03,8.68,41.1,20.18,58.25,35.21,8.82,7.73,16.88,16.38,23.81,25.85,3.6,4.92,6.9,10.05,9.91,15.34,1.57,2.77,3.22,5.48,5.1,8.05,2.17,2.97,4.91,5.57,6.82,8.7,3.74,6.1,7.74,12.13,11.1,18.44l1.3-2.26c-3.42.23-1.61,4.27-.3,5.71,1.58,1.75,4.47.63,4.21-1.79l-1.5,1.5c1.98.12,4,.08,5.98.12,1.68.03,2.05-2.53.4-2.95-1.37-.35-2.74-.7-4.11-1.05-.77-.2-1.61-.53-2.41-.61-1.29-.13.42.76-.15.04l-.66,2.51c1.87-.56,2.28-1.81,1.52-3.53-1.31-2.97-3.82-5.56-5.52-8.33l-2.59,1.51c2.11,2.91,5.61,6.2,6.13,9.77.09.62.85,1.13,1.45,1.1.66-.03,1.07-.14,1.67-.44l-1.82-.23c2.76,2.21,7.32,1.81,10.68,1.82,1.56,0,2.37.72,3.87.97,2.31.39,4.98.09,7.32.09,2.55,0,5.14-.13,7.68.02,2.3.13,4.5-.02,6.79.02,1.43.03,2.69.32,4.14.16,2.46-.28,4.96-.12,7.44-.08,9.06.13,18.13.22,27.17.32,4.2.04,8.44.34,12.63.13,2.17-.11,5.33.94,7.34-.12l-2.05-.54c1.32,2,4.38,1.04,4.08-1.43-.23-1.89-3.23-1.92-3,0,.68-.51,1.18-.54,1.51-.09-.46-.7-1.3-.93-2.05-.54.42-.22-.75-.05-.89-.07-.42-.07-.92-.29-1.36-.32-1.74-.11-3.48.08-5.22.17-1.84.09-3.59-.29-5.41-.3s-3.72.12-5.58.11c-8.22-.07-16.5-.23-24.75-.28-7.72-.05-15.29-.12-22.98-.14-2.19,0-4.39-.01-6.58-.02-2.42,0-4.74.25-7-.64-1.34-.53-2.6-.4-4.1-.43-1.9-.04-6.01.3-7.54-.93-.56-.45-1.17-.56-1.82-.23l-.15.03,1.45,1.1c-.58-3.95-4.13-7.32-6.43-10.49-1.11-1.53-3.62-.17-2.59,1.51.96,1.56,1.96,3.09,3.03,4.57.9,1.24,2.31,2.66,2.6,4.22l.39-1.46-.23.13c-1.17.35-1.35,1.64-.66,2.51.36.45,2,.87,3.13,1.16,1.62.41,3.24.83,4.86,1.24l.4-2.95c-1.99-.04-4,0-5.98-.12-.75-.05-1.58.73-1.5,1.5-.03-.28,1.17-.4.15-.2.17-.03.72-.83.86-.03-.05-.28-.3-.53-.43-.77-.84-1.5.01-.03-1.49.07,1.15-.08,1.85-1.21,1.3-2.26-3.52-6.61-7.78-12.85-11.6-19.31-1.67-2.83-4.38-5.16-6.33-7.83s-3.79-5.78-5.51-8.79c-5.83-10.18-12.82-19.69-20.74-28.33-15.32-16.72-34.07-30.03-54.22-40.3-19.18-9.77-39.63-16.9-60.47-22.19-8.76-2.22-17.76-3.52-26.49-5.78-4.62-1.2-9.03-3.7-13.11-6.1-12.71-7.46-25.11-17.76-31.95-31.06-3.56-6.93-5.25-14.83-3.87-22.57,1.77-9.95,7.87-18.45,14.97-25.38,4.71-4.6,10.04-8.5,14.85-13,4.46-4.17,8.65-8.64,12.48-13.39,6.62-8.22,12.18-17.25,16.33-26.95,7.31-17.09,10.09-35.76,9.03-54.27-1.34-23.47-8.13-47.57-19.53-68.2-.19-.34-.38-.69-.58-1.03-.71-1.21-2.28-.79-2.74.36-1.42,3.55-2.84,7.11-4.26,10.66-3.86,9.67-7.72,19.34-11.59,29.01-5.71,14.3-11.42,28.6-17.13,42.9-6.97,17.45-13.94,34.9-20.9,52.35-7.63,19.11-15.26,38.22-22.9,57.33-7.67,19.2-15.34,38.41-23.01,57.61-7.18,17.99-14.37,35.98-21.55,53.97-6.07,15.2-12.14,30.41-18.22,45.61-4.37,10.93-8.73,21.87-13.1,32.8l-4.08,10.2c-.69,1.72-1.67,3.53-2.13,5.33-.06.22-.18.45-.27.66l1.45-1.1H36.61l1.45,1.9c1.68-4.32,3.37-8.64,5.05-12.96,4.58-11.75,9.16-23.51,13.74-35.26,6.77-17.39,13.55-34.77,20.32-52.16,8.3-21.3,16.6-42.59,24.9-63.89,9.06-23.25,18.12-46.49,27.18-69.74,9.14-23.46,18.29-46.93,27.43-70.39,8.53-21.88,17.05-43.75,25.58-65.63,7.2-18.49,14.41-36.98,21.61-55.47,5.18-13.3,10.36-26.59,15.55-39.89,2.43-6.23,5.43-12.5,7.37-18.91.08-.28.21-.55.32-.82l-1.05,1.05c8.9-2.26,18.24-3.26,27.37-3.92,21.74-1.58,43.78-.12,64.99,4.95,27.91,6.66,54.06,19.79,75.47,38.98,28.93,25.92,48.09,61.43,60.17,97.98,7.41,22.42,13.86,51.09,1.14,72.93-6.97,11.97-19.22,19.14-32.48,22.1-4.1.92-8.14,1.45-12.35,1.58-9.96.3-19.91,1.57-29.78,2.85-17.6,2.28-35.25,5.34-52.19,10.73-10.38,3.3-20.88,7.49-29.69,14.02-9.76,7.24-16.63,17.77-14.39,30.27,1.25,6.96,4.97,13.54,9.66,18.79.28.31.56.63.86.92.6.59,1.52.55,2.12,0,28.27-25.51,62.8-48.96,101.79-52.38,28.71-2.52,56.07,7.32,78.88,24.42,23.27,17.44,41.61,40.95,56.87,65.49,14.26,22.94,26.08,47.39,36.12,72.45,5.89,14.7,11.27,29.65,15.73,44.85.19.66.38,1.31.57,1.97.24.84,1.04,1.17,1.85,1.05-.94.15.21,2.34.41,3.08.25.89.48,1.79.71,2.69.63,2.49,1.2,4.99,1.77,7.49.43,1.88,3.32,1.09,2.89-.8Z"/>
      <path class="cls-1" d="M495.46,553.97s-.02,0-.03,0c0,0,0,0,0,0-.13.02-.28.04-.4.05,0,0-.01,0-.02,0l.4-.05s-.02,0-.03,0l1.5,1.5c-.02-.17-.05-.33-.07-.5l.05.4s0-.06,0-.08l-2.8.76c.04.06.07.12.11.18.09.17.22.32.39.42.14.13.31.22.51.27.2.06.4.07.6.03.2,0,.39-.07.56-.18l.3-.23c.19-.19.31-.41.39-.66l.05-.4c0-.27-.07-.52-.2-.76-.04-.06-.07-.12-.11-.18l-.23-.3c-.14-.15-.3-.25-.48-.31-.12-.07-.24-.1-.38-.1-.2-.04-.4-.04-.6.03l-.36.15-.3.23c-.15.14-.25.3-.31.48-.09.18-.14.37-.13.58,0,.01,0,.03,0,.04.01.15.04.31.06.44,0,.03,0,.06.01.09l-.05-.4s0,0,0,.01c0,.21.04.4.13.58.06.19.16.35.31.48l.3.23c.23.14.49.2.76.2,0,0,.02,0,.03,0,.15-.02.28-.04.42-.06l-.4.05s.03,0,.04,0c.21,0,.4-.04.58-.13.19-.06.35-.16.48-.31.15-.14.25-.3.31-.48.09-.18.14-.37.13-.58l-.05-.4c-.07-.25-.2-.47-.39-.66l-.3-.23c-.23-.14-.49-.2-.76-.2Z"/>
      <path class="cls-1" d="M493.28,542.05l-.08-.03c-.56-.2-1.23.09-1.58.54s-.44,1.16-.12,1.67c.43.69.89,1.36,1.36,2.02.12.16.23.32.35.48.06.08.12.16.18.24.03.04.06.08.09.12-.07-.2-.08-.25-.04-.14.11.27.21.54.33.81.04.09.08.17.13.26.18.34-.07-.24.01-.02l2.2-1.69c-.06-.04-.12-.08-.18-.12-.29-.2-.83-.26-1.16-.15s-.58.27-.78.54c-.48.63-.36,1.38.12,1.97.06.07.25.32-.03-.04l.23.3c-.14-.18-.19-.23-.13-.13.06.15.3.63.09.03l2.51-1.46c-.37-.36-.72-.73-1.05-1.13-.09-.1-.17-.2-.25-.31-.13-.16.04.05.07.09-.03-.05-.07-.09-.11-.14-.16-.21-.31-.43-.46-.65-.28-.42-.54-.85-.77-1.3-.13-.24-.24-.48-.36-.72-.05-.11-.1-.22-.15-.33-.11-.24.1.24.03.07-.03-.07-.06-.14-.08-.21l-2.2,1.69c.22.16.44.32.66.47.65.45,1.69.14,2.05-.54.4-.77.15-1.57-.54-2.05-.22-.15-.44-.32-.66-.47-.48-.34-1.23-.22-1.67.12s-.76,1.03-.54,1.58c.89,2.23,2.17,4.26,3.9,5.94.46.45,1.26.6,1.82.23.53-.34.91-1.05.69-1.69-.1-.29-.26-.49-.4-.75-.08-.16-.49-.68-.15-.24-.13-.17-.26-.34-.39-.5l-1.82,2.36c.06.04.12.08.18.12.5.32,1.21.23,1.67-.12s.74-1.02.54-1.58c-.1-.28-.23-.52-.36-.78-.02-.04-.04-.09-.06-.13-.07-.15-.05-.12.04.09,0,0-.1-.26-.1-.27-.11-.29-.24-.52-.42-.77-.13-.17-.26-.35-.38-.52-.5-.68-.97-1.38-1.42-2.1l-1.69,2.2.08.03c.74.26,1.67-.3,1.85-1.05.19-.84-.25-1.57-1.05-1.85Z"/>
      <path class="cls-1" d="M495.33,550.41c.12.24.23.49.34.74l-.15-.36c.03.08.07.16.1.24l-.05-.4c.02.21.05.42.08.63l2.51-1.46c-.16-.17-.32-.34-.48-.51l.44,1.06.02-.69c0-.21-.04-.4-.13-.58-.06-.19-.16-.35-.31-.48-.14-.15-.3-.25-.48-.31-.18-.09-.37-.14-.58-.13l-.4.05c-.25.07-.47.2-.66.39l-.23.3c-.14.23-.2.49-.2.76v.38c-.01.06-.01.11-.01.17,0,.31.04.62.2.9.12.2.3.37.46.54.09.09.17.18.26.27l.3.23c.17.11.36.17.56.18.13.04.27.04.4,0,.2,0,.39-.07.56-.18l.3-.23.23-.3c.11-.17.17-.36.18-.56.04-.2.04-.4-.03-.6,0-.04-.01-.08-.02-.11l.05.4c-.02-.18-.01-.37-.08-.54-.02-.04-.04-.09-.05-.13-.09-.21-.17-.42-.26-.63-.08-.19-.17-.37-.26-.56-.09-.17-.22-.32-.39-.42-.14-.13-.31-.22-.51-.27-.2-.06-.4-.07-.6-.03-.2,0-.39.07-.56.18l-.3.23c-.19.19-.31.41-.39.66l-.05.4c0,.27.07.52.2.76Z"/>
      <path class="cls-1" d="M491.28,549.78c.24.83.51,1.64.82,2.44l2.74-1.16c-1.48-2.77-2.96-5.54-4.44-8.3-.21-.4-.43-.8-.64-1.2l-2.59,1.51c.7.97,1.41,1.94,2.11,2.91.58.79.95,1.76,1.39,2.64.25.51.51,1.01.76,1.52.35.7,1.4.96,2.05.54.72-.46.92-1.3.54-2.05-.55-1.08-1.09-2.17-1.64-3.25-.43-.86-1.02-1.59-1.58-2.37-.35-.48-.7-.96-1.05-1.44-.46-.63-1.32-1.01-2.05-.54s-.93,1.31-.54,2.05c1.48,2.77,2.96,5.54,4.44,8.3.21.4.43.8.64,1.2.35.66,1.21.89,1.87.61s1.13-1.07.87-1.77c-.3-.8-.58-1.61-.82-2.44-.21-.75-1.07-1.3-1.85-1.05s-1.28,1.04-1.05,1.85Z"/>
      <path class="cls-1" d="M486.76,540.72c.96.8,1.94,1.57,2.94,2.33l-.54-.54c2.21,3.57,4.11,7.34,6.09,11.05.72,1.35,2.76.68,2.8-.76,0-.36.02-.72.03-1.09l-2.95.4c.31.92.57,1.85.77,2.79l2.74-1.16c-2.91-5.27-5.98-10.45-9.76-15.15-.51-.63-1.59-.53-2.12,0-.62.62-.51,1.49,0,2.12,3.61,4.49,6.52,9.51,9.29,14.54.85,1.54,3.09.46,2.74-1.16-.21-.95-.46-1.87-.77-2.79-.53-1.58-2.9-1.34-2.95.4,0,.36-.02.72-.03,1.09l2.8-.76c-1.28-2.4-2.55-4.8-3.86-7.18-.65-1.18-1.31-2.35-2.01-3.5s-2.08-1.92-3.09-2.76c-.62-.52-1.51-.61-2.12,0-.53.53-.62,1.6,0,2.12Z"/>
    </g>
  </g>
</svg>