<?xml version="1.0" encoding="UTF-8"?>
<svg xmlns="http://www.w3.org/2000/svg" viewBox="0 0 2864 560">
  <defs>
    <style>
      .cls-1 {
        fill: #7790ed;
      }
    </style>
  </defs>
  <g id="Layer_8">
    <g>
      <g>
        <path class="cls-1" d="M1587.94,549.61c-.25-.29-.51-.56-.79-.82.21.32.48.6.79.82Z"/>
        <path class="cls-1" d="M1589,548.55c-.25-.29-.51-.56-.79-.82-.14-.15-.3-.25-.48-.31-.18-.09-.37-.14-.58-.13l-.4.05c-.2.05-.37.14-.51.27-.11.07-.2.16-.27.27-.13.14-.22.31-.27.51l-.05.4c0,.27.07.52.2.76.12.18.26.36.4.53.06.08.13.15.2.22s.14.13.21.2c.17.15.35.28.53.41.17.11.36.17.56.18.2.04.4.04.6-.03.2-.05.37-.14.51-.27.16-.11.29-.25.39-.42l.15-.36c.07-.27.07-.53,0-.8l-.15-.36c-.13-.23-.31-.4-.54-.54-.03-.02-.05-.04-.08-.06l.3.23c-.22-.17-.42-.36-.59-.58l.23.3c-.05-.06-.09-.12-.13-.18l-2.36,1.82c.28.26.54.54.79.82.14.15.3.25.48.31.18.09.37.14.58.13.21,0,.4-.04.58-.13.19-.06.35-.16.48-.31l.23-.3c.14-.23.2-.49.2-.76l-.05-.4c-.07-.25-.2-.47-.39-.66Z"/>
      </g>
      <g>
        <path class="cls-1" d="M1685.87,560.33c-.57-2.39-1.14-4.78-1.77-7.16-.3-1.15-.62-2.29-.96-3.42-.3-1.02-.54-2.11-1.26-2.93-.23-.26-.51-.28-.75-.17-5.95-20-98.7-318.01-292.47-150.5,0,0-61.38-58.12,111.9-71.7,0,0,99.95,4.35,32.59-129.28-67.35-133.62-214.74-97.77-214.74-97.77l-189.04,463.66h112.76l159.12-380.83s59.28,96.16-25.63,161.61c-59.55,45.9,15.85,87.34,28.79,89.63,55.4,9.78,125.88,32.8,160.97,92.88,3.08,5.27,6.63,9.78,10.54,13.64,1.1,1.96,2.32,3.87,3.54,5.75,2.52,3.89,5.03,7.78,7.55,11.67.3.64.63,1.26.98,1.87-.02,0-.04,0-.05,0-.18.06-.34.17-.43.33-.02.06-.05.12-.07.17-.03.13-.03.26,0,.39.04.25.21.48.38.65.02.02.05.04.07.06.19.33.39.65.61.96.05.11.1.22.16.33.04.08.11.16.19.21.11.2.3.35.6.35.05,0,.08-.02.12-.02.04,0,.08-.01.12-.02.04-.01.08-.03.11-.05,0,0,.01,0,.02,0,.11,0,.23-.03.32-.08.15-.1.29-.25.33-.43.04-.17.04-.38-.06-.53.02,0,.05,0,.07,0,1.97.04,3.94.07,5.91.11l-7.2-1.75s-.01-.01-.02-.02c-.01-.02-.02-.03-.03-.05-.03-.03-.05-.06-.08-.1.36-.12.82-.14.89-.49.03-.13-.02-.26-.08-.39-.56-1.33-1.5-2.46-2.38-3.6-1.19-1.53-2.29-3.11-3.32-4.75l5.96,7.84c.13.61.24,1.22.32,1.84.33.06.64-.04.91-.22.61.64,1.62.82,2.53.92,3.03.33,6.07.45,9.12.38.67.63,1.56,1.02,2.57,1.02,5.12.01,10.24.02,15.36.04,1.58.51,3.15.13,4.75.05.32-.02.63-.02.95-.03.63.03,1.25.09,1.87.16.02,0,.03,0,.05,0,.51.16,1.03.18,1.54.07.37-.02.73-.1,1.07-.26,2.53.03,5.06.07,7.58.1,1.25.02,2.51.05,3.76.02,3.04.35,6.13.13,9.19.08,3.15-.05,6.29-.03,9.43.25.46.04.92-.04,1.35-.21,1.93.24,3.89.15,5.83.11,1.18-.02,2.36-.05,3.55-.08.78.28,1.64.31,2.47.31,1.03,0,2.05,0,3.08-.01.41,0,.82-.08,1.22-.21.59.04,1.18.09,1.76.15.32.04.67-.02,1.02-.12.13.15.29.29.49.32.21.03.43.06.64.05.14,0,.28-.03.43-.04.21-.03.43-.04.64-.03.07.02.14.03.2.05.17.05.34.05.51,0,.11-.03.2-.08.29-.14.03.05.06.1.1.15,0,0,0,0,0,.01,0,0,0,0,.01,0,.12.14.29.24.53.24.61,0,.81-.62.62-1.05ZM1588.22,557.27s-.06,0-.09,0c0-.06-.02-.12-.02-.17.04.06.07.11.11.17ZM1589.39,551.71c.16.3.3.62.44.93,0,.07.02.15.03.22-.16-.16-.32-.33-.48-.49l.02-.66ZM1585.64,545.82l-.08-.03c.64.97,1.32,1.9,2.04,2.81.12.35.27.7.47,1.01.01.04.03.08.04.12-.06-.04-.12-.07-.18-.11.09.1.17.21.26.31.08.17.18.33.3.47,0,0,0,0,0,0-1.52-1.4-2.72-3.14-3.51-5.04.22.15.44.31.66.45ZM1585.49,551.44c.23.79.51,1.57.82,2.33l-5.08-9.08,2.32,3.05,1.95,3.7ZM1580.59,542.15c.86.7,1.74,1.36,2.63,2,1.17,1.79,2.22,3.65,3.26,5.51.94,1.68,1.89,3.36,2.83,5.05,0-.35.02-.69.03-1.04.31.87.57,1.76.77,2.67-2.85-4.94-5.85-9.84-9.53-14.19Z"/>
        <g>
          <path class="cls-1" d="M1687.32,559.93c-.87-3.67-1.74-7.35-2.84-10.97-.59-1.94-1.37-4.11-3.74-3.75l1.85,1.05c-3.89-13.06-8.63-25.9-13.74-38.53-9.66-23.9-20.98-47.2-34.53-69.14-15.09-24.43-33.13-47.72-55.74-65.65s-48.84-29.15-77.46-29.17c-36.92-.02-71.17,18.02-99.73,40.07-4.69,3.62-9.28,7.39-13.77,11.26h2.12c-3.37-3.2-5.88-6.98-7.84-11.41-3.62-8.19-2.76-17.29,3.15-24.51,4.95-6.04,11.88-10.21,18.84-13.53,11.77-5.61,24.59-9.02,37.3-11.71,8.93-1.89,17.94-3.38,26.98-4.6,10.65-1.44,21.64-3.13,32.4-3.39,2.12-.05,4.21-.05,6.33-.23,11.25-.97,22.69-4.31,31.86-11.07,14.3-10.55,19.69-27.63,19.19-44.89-.43-14.55-4.25-28.9-9.16-42.52-6.56-18.21-15-36.09-25.49-52.37-16.77-26.03-39.7-47.75-67.27-61.98-22.21-11.46-46.68-17.97-71.51-20.33-17.62-1.68-35.48-1.33-53.02,1.05-4.09.55-8.18,1.2-12.22,2.07-1.49.32-2.13.91-2.7,2.3-2.78,6.79-5.54,13.59-8.31,20.38-5.69,13.95-11.38,27.91-17.07,41.86-7.87,19.3-15.74,38.61-23.61,57.91-9.13,22.38-18.25,44.76-27.38,67.15-9.69,23.77-19.38,47.55-29.08,71.32-9.34,22.91-18.68,45.82-28.02,68.72-8.2,20.12-16.41,40.25-24.61,60.37-6.25,15.34-12.51,30.68-18.76,46.01-3.49,8.55-6.97,17.1-10.46,25.65-.45,1.1-.9,2.21-1.35,3.31-.38.92.57,1.9,1.45,1.9h112.76c.73,0,1.19-.48,1.45-1.1,1.41-3.38,2.83-6.77,4.24-10.15,3.87-9.26,7.74-18.53,11.61-27.79,5.7-13.64,11.4-27.29,17.1-40.93,6.95-16.64,13.91-33.28,20.86-49.93,7.62-18.23,15.23-36.46,22.85-54.69,7.72-18.49,15.45-36.97,23.17-55.46,7.17-17.16,14.34-34.32,21.51-51.48,6.06-14.51,12.12-29.01,18.18-43.52,4.38-10.48,8.76-20.96,13.13-31.43,1.35-3.23,2.7-6.46,4.05-9.69.68-1.63,1.73-3.4,2.14-5.12.05-.21.18-.43.27-.64l-2.74.36c3.08,5.01,5.58,10.45,7.86,15.86,5.33,12.64,9.17,26.03,10.96,39.64,2.28,17.35,1.09,35.17-4.67,51.77-7.39,21.31-21.96,38.74-39.55,52.51-14.06,11-26.84,26.98-21.95,45.9,3.67,14.22,15.21,25.39,26.8,33.64,5.17,3.68,10.68,6.98,16.45,9.64,4.91,2.26,9.56,3.18,14.87,4.2,20.61,3.97,41,9.42,60.56,17.09,20.85,8.18,40.9,19.02,58.16,33.39,8.56,7.12,16.44,15.09,23.33,23.84,3.8,4.84,7.29,9.92,10.46,15.2,1.65,2.75,3.3,5.46,5.22,8.02,2.06,2.74,4.73,5.08,6.64,7.89,4.04,5.95,8.14,12.16,11.6,18.46l1.3-2.26c-3.3.18-1.71,4.05-.4,5.46,1.63,1.75,4.61.99,4.31-1.65l-1.5,1.5c1.99.11,3.99.08,5.98.11,1.68.03,2.06-2.54.4-2.95-1.38-.34-2.76-.67-4.14-1.01-.74-.18-1.55-.49-2.31-.56-1.35-.12.32.68-.22.04l-.66,2.51c1.85-.53,2.3-1.78,1.52-3.47-1.31-2.86-3.82-5.31-5.52-7.96l-2.59,1.51c2.09,2.75,5.61,5.89,6.13,9.32.09.62.85,1.13,1.45,1.1.66-.03,1.07-.14,1.67-.43h-1.51c3.13,2.4,7.82.8,11.39,1.52,1.19.24,2.25.92,3.59,1,2.54.16,5.14.01,7.68.02s4.96-.12,7.41.1c2.02.18,3.95-.09,5.97-.06,1.55.02,2.86.28,4.41.11,2.53-.28,5.16-.07,7.7-.03,8.88.13,17.76.21,26.63.3,4.2.04,8.44.33,12.63.13,2.19-.1,5.3.9,7.34-.12l-2.05-.54c1.32,1.91,4.39,1.08,4.08-1.4-.24-1.89-3.25-1.91-3,0,.6-.66,1.11-.7,1.51-.11-.48-.7-1.28-.93-2.05-.54.37-.19-.92-.03-1.1-.06-.39-.05-.74-.29-1.14-.33-1.72-.17-3.5.08-5.22.16-1.84.09-3.59-.27-5.41-.29s-3.72.12-5.58.1c-8.38-.08-16.82-.18-25.22-.28-7.74-.09-15.34-.11-23.06-.13-2.38,0-4.75-.01-7.13-.02-1.09,0-2.21.09-3.29,0-1.23-.11-1.81-.45-2.91-.82-3.43-1.14-8.56,1.06-11.65-1.3-.44-.33-1.07-.21-1.51,0l-.15.02,1.45,1.1c-.59-3.83-4.13-7.01-6.43-10.04-1.13-1.49-3.66-.16-2.59,1.51.96,1.49,1.96,2.95,3.03,4.37.89,1.18,2.31,2.52,2.6,4.02l.39-1.46-.23.11c-1.16.33-1.37,1.65-.66,2.51.34.41,1.96.84,3.07,1.11,1.64.4,3.28.8,4.92,1.2l.4-2.95c-1.99-.04-4,0-5.98-.11-.75-.04-1.59.72-1.5,1.5,0-.04.56-.38.5-.39-.72-.09.02.41.08-.02.04-.27.3-.25-.15-.81-.9-1.11.57.3-1.34.41,1.14-.06,1.86-1.23,1.3-2.26-1.88-3.43-4.09-6.67-6.21-9.95-1.95-3.02-3.68-6.5-5.86-9.34-1.89-2.46-4.27-4.55-6.16-7.05-2.1-2.78-3.85-5.76-5.65-8.73-5.95-9.81-13.06-18.92-21.05-27.14-15.41-15.85-34.02-28.32-53.86-37.93-19.19-9.3-39.55-16.06-60.25-21.07-4.96-1.2-9.95-2.3-14.96-3.31-3.83-.77-7.78-1.24-11.56-2.22-4.48-1.16-8.75-3.45-12.76-5.69-12.57-7.03-25.06-16.76-32.03-29.63-3.47-6.41-5.24-13.74-4.05-21.01,1.57-9.55,7.55-17.66,14.4-24.21,4.54-4.34,9.69-7.95,14.42-12.08s9.01-8.42,13.01-13.1c6.68-7.8,12.36-16.44,16.61-25.79,7.46-16.38,10.39-34.42,9.35-52.34-1.31-22.6-8.18-45.76-19.51-65.41-.2-.35-.4-.69-.61-1.03-.74-1.2-2.26-.79-2.74.36-1.41,3.38-2.83,6.77-4.24,10.15-3.87,9.26-7.74,18.53-11.61,27.79-5.7,13.64-11.4,27.29-17.1,40.93-6.95,16.64-13.91,33.28-20.86,49.93-7.62,18.23-15.23,36.46-22.85,54.69s-15.45,36.97-23.17,55.46c-7.17,17.16-14.34,34.32-21.51,51.48-6.06,14.51-12.12,29.01-18.18,43.52-4.38,10.48-8.76,20.96-13.13,31.43-1.35,3.23-2.7,6.46-4.05,9.69-.69,1.65-1.68,3.39-2.14,5.12-.06.22-.18.43-.27.64l1.45-1.1h-38.04c-20.23,0-40.46,0-60.7,0h-14.02l1.45,1.9c1.69-4.14,3.38-8.29,5.07-12.43,4.6-11.28,9.19-22.55,13.79-33.83,6.77-16.6,13.54-33.21,20.31-49.81,8.25-20.25,16.51-40.49,24.76-60.74,9.08-22.26,18.15-44.52,27.23-66.78,9.16-22.47,18.32-44.94,27.48-67.41,8.51-20.87,17.02-41.75,25.53-62.62,7.22-17.71,14.44-35.41,21.66-53.12,5.17-12.68,10.34-25.37,15.52-38.05,2.42-5.94,5.5-11.95,7.38-18.1.08-.26.21-.52.31-.77l-1.05,1.05c8.92-2.16,18.23-3.11,27.36-3.75,21.81-1.52,43.91-.11,65.23,4.78,27.9,6.4,54.26,19,75.95,37.8,28.53,24.71,47.93,58.88,59.92,94.35,7.22,21.36,13.27,48.86.09,69.28-7.41,11.48-20.09,17.87-33.2,20.41-3.86.75-7.78,1.19-11.74,1.26-11.62.19-23.37,1.9-34.88,3.46-16.72,2.26-33.49,5.28-49.57,10.5-9.73,3.16-19.55,7.15-27.78,13.33-9.13,6.86-15.46,16.86-13.03,28.57,1.36,6.55,5.05,12.7,9.6,17.54.27.29.54.57.82.84.62.59,1.49.54,2.12,0,28.63-24.7,63.23-46.83,101.84-50.05,28.5-2.38,55.86,6.86,78.89,23.38,23.05,16.53,41.49,38.97,56.86,62.61,14.2,21.84,26.04,45.22,36.1,69.23,5.87,13.99,11.23,28.25,15.69,42.75.2.64.39,1.27.58,1.91.25.85,1.03,1.17,1.85,1.05-.92.14.2,2.16.41,2.9.25.86.48,1.71.71,2.57.63,2.37,1.2,4.77,1.77,7.16.45,1.88,3.34,1.08,2.89-.8Z"/>
          <path class="cls-1" d="M1588.22,555.77s-.02,0-.03,0c-.07,0-.15.02-.21.03-.07,0-.14.02-.21.03l.4-.05s-.02,0-.03,0l1.5,1.5c-.02-.15-.04-.3-.06-.45,0-.02,0-.04,0-.05l.05.4s0-.05,0-.07l-2.8.76c.04.06.07.11.11.17.09.17.22.32.39.42.14.13.31.22.51.27.2.06.4.07.6.03.2,0,.39-.07.56-.18l.3-.23c.19-.19.31-.41.39-.66l.05-.4c0-.27-.07-.52-.2-.76-.04-.06-.07-.11-.11-.17l-.23-.3c-.14-.15-.3-.25-.48-.31-.12-.07-.24-.1-.38-.1-.2-.04-.4-.04-.6.03l-.36.15-.3.23c-.15.14-.25.3-.31.48-.09.18-.14.37-.13.58,0,.01,0,.03,0,.04.01.15.04.29.06.44,0,.03,0,.06.01.09l-.05-.4h0c0,.21.04.4.13.58.06.19.16.35.31.48l.3.23c.23.14.49.2.76.2,0,0,.02,0,.02,0,.14-.02.28-.04.42-.06l-.4.05s.03,0,.04,0c.21,0,.4-.04.58-.13.19-.06.35-.16.48-.31.15-.14.25-.3.31-.48.09-.18.14-.37.13-.58l-.05-.4c-.07-.25-.2-.47-.39-.66l-.3-.23c-.23-.14-.49-.2-.76-.2Z"/>
          <path class="cls-1" d="M1588.1,552.46c.16.3.3.62.44.93l-.2-.76c.02.21.05.41.08.62l2.51-1.46c-.16-.16-.32-.33-.48-.49l.44,1.06.02-.66c0-.21-.04-.4-.13-.58-.06-.19-.16-.35-.31-.48-.14-.15-.3-.25-.48-.31-.18-.09-.37-.14-.58-.13l-.4.05c-.25.07-.47.2-.66.39l-.23.3c-.14.23-.2.49-.2.76v.36c-.01.06-.01.12-.01.18,0,.03,0,.06,0,.09,0,.14.01.28.05.42.05.2.14.37.27.51.08.1.14.18.23.26.04.04.08.08.12.13.08.08.17.17.25.25l.3.23c.17.11.36.17.56.18.13.04.27.04.4,0,.2,0,.39-.07.56-.18l.3-.23.23-.3c.11-.17.17-.36.18-.56.04-.2.04-.4-.03-.6,0-.04-.01-.09-.02-.13l.05.4s0-.05,0-.08c-.01-.14-.03-.27-.05-.41-.05-.13-.11-.25-.16-.38-.02-.04-.03-.08-.05-.12-.04-.09-.08-.18-.12-.27-.08-.18-.17-.35-.26-.52-.09-.17-.22-.32-.39-.42-.14-.13-.31-.22-.51-.27-.2-.06-.4-.07-.6-.03-.2,0-.39.07-.56.18l-.3.23c-.19.19-.31.41-.39.66l-.05.4c0,.27.07.52.2.76Z"/>
          <path class="cls-1" d="M1586.04,544.37l-.08-.03c-.57-.19-1.23.09-1.58.54s-.45,1.16-.12,1.67c.71,1.07,1.48,2.1,2.28,3.11l-.39-.66c.16.47.36.94.62,1.37l-.15-.36s.03.08.04.12l2.2-1.69c-.06-.04-.12-.07-.18-.11-.62-.42-1.51-.17-1.94.39-.48.62-.38,1.4.12,1.97.05.06.1.12.15.19.16.2-.15-.23-.08-.07.06.13.16.25.24.36l-.15-.36h0c.84-.48,1.67-.96,2.51-1.45-.36-.34-.71-.69-1.04-1.06-.17-.19-.33-.39-.49-.59-.12-.15.19.25.08.1-.04-.06-.09-.11-.13-.17-.08-.1-.15-.21-.22-.31-.57-.83-1.06-1.71-1.45-2.63l.15.36-.03-.08-2.2,1.69c.22.15.44.31.66.45.66.43,1.69.15,2.05-.54.4-.75.16-1.59-.54-2.05-.22-.15-.44-.3-.66-.45-.49-.33-1.22-.23-1.67.12-.21.16-.36.35-.46.6-.12.28-.2.69-.08.98.9,2.15,2.18,4.11,3.9,5.7.47.44,1.25.6,1.82.23.22-.14.4-.32.54-.54.19-.29.27-.82.15-1.16-.2-.53-.57-1.03-.94-1.45l-1.82,2.36c.06.04.12.08.18.11.51.32,1.2.24,1.67-.12.44-.34.75-1.02.54-1.58-.15-.41-.38-.77-.55-1.17l.15.36c-.09-.23-.16-.47-.27-.68s-.32-.42-.47-.61c-.05-.06-.25-.34,0,0-.04-.05-.08-.1-.12-.15-.11-.14-.21-.28-.32-.42-.39-.53-.77-1.07-1.13-1.62l-1.69,2.2.08.03c.74.25,1.67-.29,1.85-1.05.19-.83-.25-1.58-1.05-1.85Z"/>
          <path class="cls-1" d="M1584.04,551.84c.24.79.51,1.56.82,2.33l2.74-1.16c-1.48-2.65-2.97-5.3-4.45-7.95-.21-.38-.42-.76-.63-1.13l-2.59,1.51,2.1,2.77c.59.77.97,1.71,1.42,2.57.25.47.5.95.75,1.42.37.7,1.39.96,2.05.54.71-.46.93-1.31.54-2.05-.54-1.03-1.09-2.06-1.63-3.09-.44-.84-1.04-1.55-1.61-2.31l-1.02-1.35c-.47-.62-1.31-1.01-2.05-.54-.69.45-.95,1.32-.54,2.05,1.48,2.65,2.97,5.3,4.45,7.95.21.38.42.76.63,1.13.37.65,1.2.9,1.87.61.63-.26,1.14-1.07.87-1.77-.3-.77-.58-1.54-.82-2.33s-1.06-1.3-1.85-1.05-1.29,1.04-1.05,1.85Z"/>
          <path class="cls-1" d="M1579.53,543.21c.96.77,1.94,1.51,2.94,2.24l-.54-.54c2.21,3.41,4.11,7.02,6.09,10.56.75,1.33,2.76.7,2.8-.76,0-.35.02-.69.03-1.04l-2.95.4c.31.88.57,1.76.77,2.67l2.74-1.16c-2.91-5.05-6-10.02-9.76-14.49-.52-.62-1.58-.54-2.12,0-.61.61-.52,1.5,0,2.12,3.59,4.28,6.51,9.06,9.29,13.89.87,1.5,3.11.48,2.74-1.16-.21-.91-.46-1.79-.77-2.67-.55-1.56-2.9-1.35-2.95.4,0,.35-.02.69-.03,1.04l2.8-.76c-1.29-2.3-2.57-4.62-3.88-6.91-.62-1.08-1.25-2.15-1.92-3.2-.74-1.17-2.08-1.89-3.16-2.75-.63-.51-1.5-.62-2.12,0-.52.52-.64,1.61,0,2.12Z"/>
        </g>
      </g>
    </g>
  </g>
  <g id="Layer_9">
    <g>
      <path class="cls-1" d="M2219.65,110.29v452.39h122.42l9.52-378.1c.16-6.28,1.48-12.47,3.9-18.27,5.06-12.1,15.46-30.61,32.07-31.93,24.89-1.98,51.83-.73,44.53,50.37-7.3,51.1-34.75,204.94,24.6,223.29,59.35,18.35,165.93,30.76,170.31-41.51s-71.17-162.79-73-174.69c-1.46-9.49,93.44-103.45,129.94-35.56,36.5,67.89,8.95,406.4,8.95,406.4h117.61s1.98-351.49-6.84-377.93c-8.76-26.28-32.51-76.65-132.69-74.46s-194.17,70.66-166.61,96.36c41.33,38.54,62.05,161.12,31.39,191.78,0,0-24.74,29.94-51.83-28.99-31.39-68.29,48.86-184.31-48.91-237.25-87.98-47.64-214.62-24.3-215.35-21.9Z"/>
      <path class="cls-1" d="M2810.82,563h-118.28l.03-.35c.07-.85,6.91-85.69,9.21-177.73,3.04-121.77-3.23-200.79-18.13-228.5-6.44-11.99-15.16-19.63-25.9-22.71-9.28-2.66-20.11-1.96-32.19,2.08-21,7.03-40.07,22.1-49.56,30.45-13.49,11.87-22.11,22.79-21.69,25.53.45,2.94,5.72,11.11,13,22.42,22.12,34.33,63.28,98.24,60.01,152.34-1.09,17.9-8.54,31.76-22.15,41.18-15.98,11.06-39.93,15.95-71.17,14.56-24.01-1.07-52.22-6.15-77.4-13.94-23.93-7.4-36.54-37.74-37.48-90.18-.77-43.34,6.55-92.44,10.93-121.78.64-4.31,1.23-8.23,1.72-11.68,2.89-20.26.67-33.97-6.8-41.92-8.92-9.49-23.97-9.15-37.38-8.08-16.67,1.33-27.08,20.45-31.8,31.74-2.41,5.77-3.72,11.88-3.88,18.15l-9.53,378.42h-123.05V110.19c.07-.19.26-.34.7-.52,4.62-1.9,37.18-7.78,78.94-7.53,37.47.22,91.51,5.56,136.19,29.75,60.52,32.77,53.07,89.48,45.86,144.33-4.52,34.46-8.8,67,3.19,93.07,10.36,22.53,21.51,34.73,33.16,36.25,10.76,1.4,18.06-7.24,18.13-7.33,9.88-9.88,15.05-30.3,14.57-57.53-.79-45.46-18.19-107.94-45.93-133.81-5.13-4.78-6.3-11.32-3.41-18.9,5.96-15.62,28.61-34.76,59.11-49.96,34.7-17.28,74.16-27.25,111.13-28.06,43.58-.95,77.5,8.01,100.84,26.62,19.72,15.74,27.8,34.96,32.17,48.06,8.73,26.19,6.87,374.52,6.86,378.04v.32ZM2693.24,562.36h116.94c.07-12.36,1.76-351.76-6.82-377.51-4.34-13.02-12.37-32.13-31.96-47.76-23.21-18.52-57.01-27.43-100.42-26.48-81.93,1.79-158.21,47.6-169.65,77.6-2.83,7.43-1.74,13.55,3.25,18.2,12.66,11.8,24.34,32.63,32.91,58.65,7.99,24.26,12.81,51.82,13.22,75.62.48,27.4-4.76,47.99-14.74,57.97-.05.06-6.48,7.7-16.24,7.7-.8,0-1.61-.05-2.45-.16-11.88-1.55-23.2-13.87-33.66-36.62-12.06-26.24-7.78-58.88-3.24-93.43,7.18-54.63,14.59-111.12-45.53-143.68-25.03-13.56-69.35-29.68-138.4-29.68-.26,0-.51,0-.77,0-43,.07-73.84,6.34-75.71,7.62v451.95h121.78l9.51-377.79c.16-6.35,1.48-12.53,3.93-18.38,4.78-11.42,15.33-30.78,32.34-32.13,13.56-1.08,28.79-1.42,37.9,8.28,7.61,8.1,9.89,21.99,6.97,42.45-.49,3.45-1.08,7.37-1.72,11.69-4.37,29.32-11.7,78.38-10.92,121.67.93,52.13,13.39,82.27,37.02,89.57,25.13,7.77,53.29,12.84,77.24,13.91,31.11,1.39,54.92-3.47,70.78-14.45,13.44-9.3,20.8-22.99,21.88-40.69,3.27-53.89-37.83-117.68-59.9-151.95-7.6-11.8-12.62-19.59-13.09-22.67-.51-3.32,9.31-15.04,21.9-26.11,9.53-8.39,28.67-23.51,49.78-30.58,12.21-4.09,23.17-4.79,32.57-2.09,10.92,3.13,19.76,10.88,26.29,23.02,8.35,15.53,14.01,46.57,16.84,92.27,2.26,36.53,2.72,82.47,1.37,136.55-2.22,89.06-8.7,171.37-9.18,177.41Z"/>
    </g>
  </g>
  <g id="Layer_10">
    <g>
      <path class="cls-1" d="M414.28,190.11h133.09S475.01,14.79,308.4,22.49C141.79,30.18,31.24,101.17,11.77,207.21s105.1,102.63,158.04,86.38c52.94-16.25,5.71,33.67-21.02,40.2s-117.56,61.58-112.11,106.9c5.29,44,112.79,115.56,225,118.02,77.85,1.71,394.91-169.3,285.68-165.19-49,1.84-135.42-.72-135.42-.72,0,0-49.83,111.18-122.23,121.44-79.08,11.21-141.7-109.47-127.68-140.26,14.01-30.79,63.78-60.01,44.34-83.46-19.43-23.45-44.34-17.46-49.79-32-5.45-14.54,29.58-142.82,45.93-165.06,18.83-25.6,21.8-50.46,87.2-44.47,65.4,5.99,134.69,122.3,124.57,141.11Z"/>
      <path class="cls-1" d="M262.84,559.08c-.39,0-.78,0-1.16-.01-50.56-1.11-106.23-16.96-152.74-43.48-42.1-24-69.91-52.69-72.58-74.85-3.17-26.38,25.97-54.06,43.63-68.22,25.04-20.07,54.61-35.63,68.73-39.08,17.24-4.21,41.62-25.56,44.5-36.31.53-1.98.32-3.52-.63-4.57-1.8-2-7.19-3.39-22.7,1.37-21.38,6.56-48.51,9.64-72.57,8.23-21.57-1.26-51.22-6.79-69.99-25.95-15.96-16.29-21.31-39.53-15.88-69.07,9.62-52.42,41.88-97.2,93.29-129.48,51.86-32.57,122.28-51.77,203.64-55.53,38.06-1.76,74.32,5.97,107.78,22.98,26.77,13.6,51.81,33.13,74.43,58.05,38.51,42.42,56.89,86.36,57.07,86.8l.21.5h-134.15l.29-.53c2.57-4.78-.1-16.32-7.33-31.69-10.78-22.91-28.66-48.41-47.84-68.21-16.65-17.2-42.17-38.21-69.15-40.68-54.91-5.02-65.49,11.49-78.88,32.39-2.49,3.89-5.06,7.91-8.04,11.95-8.91,12.12-22.31,53.52-31.08,85.3-11.3,40.96-17.25,72.87-14.8,79.41,2.48,6.61,9.12,8.89,17.52,11.79,9.7,3.34,21.76,7.49,32.21,20.11,12.5,15.08-3.11,32.46-19.64,50.86-9.6,10.69-19.53,21.73-24.65,32.99-6.3,13.85,3.42,46.68,22.61,76.36,9.01,13.93,24.15,33.51,45.07,47.63,19.67,13.28,39.75,18.59,59.67,15.76,20.59-2.92,52.57-16.47,88.06-64.44,21.24-28.71,33.8-56.53,33.92-56.81l.09-.2h.21c.86.03,86.97,2.55,135.4.73,12.53-.47,20.01,1.38,22.26,5.49,1.22,2.23.91,5.11-.9,8.55-11.15,21.13-77.15,61.14-137.6,91.42-34.6,17.33-68.34,32.16-97.58,42.9-31.32,11.5-55.71,17.55-70.69,17.55ZM186.39,290c3.21,0,5.44.69,6.67,2.07,1.13,1.25,1.39,3.03.79,5.27-3.19,11.88-28.84,32.86-44.98,36.8-14.06,3.43-43.52,18.94-68.49,38.96-17.54,14.06-46.5,41.53-43.37,67.55,1.29,10.69,8.72,23.29,21.51,36.44,12.78,13.14,30.32,26.24,50.72,37.87,46.43,26.47,101.99,42.29,152.45,43.4,14.79.32,39.56-5.73,71.63-17.5,29.22-10.73,62.94-25.55,97.52-42.87,60.36-30.23,126.22-70.14,137.31-91.13,1.69-3.2,2-5.84.91-7.83-2.11-3.88-9.42-5.61-21.68-5.14-47.3,1.78-130.5-.58-135.24-.72-1.18,2.59-13.59,29.26-33.91,56.74-12.5,16.91-25.52,30.81-38.68,41.33-16.47,13.16-33.22,21.02-49.79,23.37-20.07,2.84-40.29-2.49-60.09-15.86-21.01-14.19-36.21-33.84-45.25-47.82-19.64-30.37-29.17-62.78-22.66-77.08,5.17-11.36,15.13-22.45,24.77-33.17,16.31-18.15,31.71-35.3,19.63-49.89-10.34-12.47-22.31-16.6-31.93-19.91-8.57-2.95-15.33-5.28-17.92-12.19-2.89-7.71,5.34-45.68,14.78-79.88,8.79-31.83,22.23-73.34,31.2-85.54,2.96-4.03,5.53-8.03,8.01-11.91,13.51-21.09,24.19-37.75,79.46-32.69,27.16,2.49,52.81,23.6,69.53,40.87,19.23,19.85,37.16,45.42,47.97,68.4,7.08,15.05,9.81,26.57,7.57,31.84h132.05c-2.15-4.99-20.53-46.22-56.74-86.11-22.57-24.86-47.54-44.34-74.24-57.9-33.36-16.95-69.52-24.66-107.47-22.91-81.26,3.75-151.57,22.92-203.35,55.44C53.82,110.46,21.67,155.07,12.09,207.28c-5.37,29.28-.1,52.3,15.69,68.41,18.63,19.01,48.12,24.5,69.58,25.76,24,1.41,51.05-1.66,72.37-8.2,7.07-2.17,12.63-3.25,16.66-3.25Z"/>
    </g>
  </g>
  <g id="Layer_11">
    <g>
      <path class="cls-1" d="M1113.58,257.7c-10.08-10.92-35.98-40.15-41.13-56.94-9.33-30.44-.16-127.33-.16-127.33h-146.15s2.37,109.14,2.37,124.96,54.89,65.57,94.11,71.97c38.75,6.33,99.65,20.56,87,33.22-12.65,12.65-68.29,1.85-90.95,0-70.15-5.73-281.55-.79-281.55-.79l.36-229.35h-137.87v487.97h137.87v-243.98s244.02-17,214.57,0c-29.45,17-25.91,56.5-25.91,56.5v187.48h149.47s.79-138.4-1.58-177.16c-2.37-38.75,9.49-48.24,39.54-61.12,30.05-12.88,9.49-55.14,0-65.42Z"/>
      <path class="cls-1" d="M1114.26,257.01c-11.16-12.1-22.03-24.7-31.23-38.37-4.05-6.01-8.1-12.41-10.03-19.47-1.49-5.43-2.17-11.08-2.68-16.67-2.61-28.7-.81-57.96,1.16-86.64.51-7.48,1.07-14.97,1.78-22.44.05-.52-.48-.97-.97-.97h-146.15c-.51,0-.98.44-.97.97.36,16.48.7,32.96,1.04,49.45.48,23.3,1.01,46.59,1.29,69.89.03,2.61-.25,5.43.36,7.99,1,4.24,3.72,8.12,6.27,11.56,8.47,11.38,19.35,21.08,30.51,29.74,12.64,9.81,26.4,18.62,41.33,24.51,6.94,2.74,13.94,4.27,21.27,5.53,8.57,1.48,17.1,3.13,25.59,4.99,15.55,3.4,31.69,7,46.24,13.66,3.6,1.65,9.18,3.94,10.93,7.85,1.61,3.58-3.08,6.13-5.76,7.21-5.74,2.33-12.28,2.69-18.4,2.82-7.75.17-15.52-.33-23.24-1.02-14.34-1.29-28.56-3.64-42.89-4.92-22.78-2.03-45.77-2.24-68.62-2.56-29.35-.4-58.7-.36-88.04-.17-26.64.18-53.29.51-79.93.95-14.66.24-29.31.51-43.97.84-.68.02-1.35.03-2.03.05l.97.97c.01-7.63.02-15.25.04-22.88.03-18.22.06-36.44.08-54.67.03-22.12.07-44.25.1-66.37.03-19.05.06-38.11.09-57.16,0-6.31.02-12.61.03-18.92,0-2.91.36-6.07.01-8.97-.01-.12,0-.26,0-.39,0-.52-.44-.97-.97-.97h-137.87c-.52,0-.97.44-.97.97v468.14c0,6.33-.1,12.68,0,19.01,0,.27,0,.55,0,.82,0,.52.44.97.97.97h137.87c.52,0,.97-.44.97-.97v-240.28c0-.9.3-2.44,0-3.29-.04-.11,0-.29,0-.41l-.97.97c7.76-.54,15.53-1.03,23.3-1.52,18.34-1.14,36.68-2.18,55.03-3.1,21.68-1.08,43.37-2.01,65.08-2.54,17.83-.44,35.75-.83,53.57.16,5.1.28,10.36.55,15.35,1.76,1.17.28,2.69.75,3.39,1.27.54.4.51.48.11.88-.44.45-.79.7-1.32,1.05-2.61,1.68-5.18,3.28-7.56,5.3-5.29,4.51-9.5,10.21-12.52,16.46-4.58,9.49-6.69,20.15-6.85,30.66-.12,7.71.12,15.47.12,23.18v169.47c0,.52.44.97.97.97h149.47c.52,0,.96-.44.97-.97.07-12.9.1-25.81.12-38.71.03-26.1-.01-52.2-.26-78.3-.12-12.2-.27-24.4-.56-36.59-.24-9.92-.92-19.83-1.13-29.74-.27-12.5.99-26.07,9.58-35.87,3.79-4.33,8.55-7.64,13.53-10.45,6.14-3.47,12.86-5.74,19.02-9.13,22.63-12.47,12.27-44.39.84-61.14-1.05-1.55-2.18-3.05-3.44-4.43-.84-.92-2.2.45-1.37,1.37,6.91,7.59,11.45,18.29,13.88,28.13,2.93,11.85,2.26,25.78-8.87,33.19-5.76,3.83-12.74,5.91-18.85,9.16-4.97,2.65-9.81,5.7-13.89,9.63-8.41,8.1-11.54,19.19-12.22,30.57-.65,10.75.51,21.63.82,32.38.33,11.54.51,23.09.64,34.63.31,26.23.37,52.47.36,78.71,0,10.15-.02,20.31-.06,30.46-.01,3.34-.02,6.68-.04,10.02,0,1.72-.31,3.72-.03,5.42.04.23,0,.49,0,.72l.97-.97h-149.47l.97.97v-94.77c0-21.52,0-43.04,0-64.57,0-9.39.3-18.83,0-28.22-.25-7.53.27-14.95,2.06-22.3,1.56-6.4,4.01-12.59,7.57-18.15,4.1-6.4,9.51-11.23,15.93-15.22,1.82-1.13,4.11-3.22,1.84-5.19-2.5-2.17-7.12-2.35-10.21-2.73-15.47-1.89-31.32-1.49-46.86-1.29-21.6.27-43.2,1.08-64.78,2.06-20.04.91-40.07,1.99-60.1,3.18-11.17.67-22.34,1.37-33.51,2.13-.52.04-1.04.07-1.56.11s-.97.41-.97.97v240.28c0,.9-.3,2.44,0,3.29.04.11,0,.29,0,.41l.97-.97h-137.87l.97.97V80.77c0-2.1.29-4.44,0-6.53-.04-.26,0-.55,0-.82l-.97.97h137.87l-.97-.97c-.01,7.63-.02,15.25-.04,22.88-.03,18.22-.06,36.44-.08,54.67l-.1,66.37c-.03,19.05-.06,38.11-.09,57.16,0,6.31-.02,12.61-.03,18.92,0,2.91-.36,6.07-.01,8.97.01.12,0,.26,0,.39,0,.51.44.98.97.97,10.44-.24,20.89-.44,31.33-.63,24.94-.45,49.88-.81,74.82-1.05,29.84-.28,59.69-.42,89.54-.19,25.16.19,50.36.48,75.49,1.94,27.15,1.58,54.28,8.21,81.56,6.58,5.56-.33,11.48-.98,16.55-3.46,2.85-1.39,6.35-4.01,5.81-7.62-.53-3.61-4.44-6.08-7.3-7.76-5.44-3.18-11.5-5.35-17.47-7.33-16.44-5.45-33.5-9.14-50.5-12.35-7.66-1.44-15.5-2.32-22.97-4.57s-14.96-5.66-21.97-9.48c-14.64-7.98-28.25-18.05-40.44-29.41-4.99-4.64-9.78-9.54-14.04-14.86-2.94-3.66-6.05-7.76-7.51-12.29-.85-2.62-.55-5.52-.58-8.24-.05-4.32-.12-8.65-.19-12.97-.21-12.37-.45-24.74-.69-37.12-.43-21.88-.89-43.77-1.36-65.65-.03-1.29-.06-2.59-.08-3.88l-.97.97h146.15l-.97-.97c-1.91,20.24-3.12,40.59-3.72,60.9-.45,15.03-.61,30.14.53,45.15.44,5.87,1.07,11.78,2.34,17.53,1.43,6.44,4.35,12.25,7.8,17.84,9.7,15.74,22.11,29.96,34.61,43.52.84.92,2.21-.45,1.37-1.37Z"/>
    </g>
  </g>
  <g id="Layer_3">
    <g>
      <path class="cls-1" d="M1721.06,555.59V104.08h159.64s3.24,12.18,0,27.74c-1.06,5.11-15.86,40.75-24.22,54.66-8.52,14.17-28.41,32.85-36.93,41.87-8.52,9.02-16.1,23.83-16.1,23.83,0,0-10.42,16.1-11.36,24.48-.95,8.37-2.84,40.58,51.14,36.07,53.98-4.51,36.93-83.1,37.48-87.09.79-5.75-7.18-115.83,119.72-127.42s154.36,92.12,153.41,112.09c-.95,19.97-38.86,190.44-216.37,123.36-43.84-16.57-15.69-108.33,21.3-95.66,68.18,36.07,224.43-29.63,158.14-73.44-77.65-42.52-199.81,53.47-208.33,65.71-8.52,12.24-61.55,81.17,13.26,119.17s274.33,206.14,274.33,206.14h-154.72l-202.94-151.38s-94.78-69.86-63.45-119.82c30.3-48.31,3.79-56.04-17.99-24.48-21.78,31.56-39.77,97.27,16.1,146.23,58.31,51.09,148.67,133.35,150.57,149.45h-202.65Z"/>
      <path class="cls-1" d="M2212.9,561.71h-173.51l-204.56-152.6c-4.03-2.97-98.93-73.83-64.97-127.97,14.74-23.5,13.06-33.08,12.12-33.99-1.3-.63-9.99,1.9-19.89,16.24-12.32,17.86-19.79,41.47-19.99,63.17-.26,29.13,11.54,54.35,35.08,74.98,21.46,18.8,62.54,55.24,96.65,88.04,54.44,52.36,55.51,61.43,55.96,65.3l.8,6.83h-215.65V97.96h170.47l1.21,4.55c.15.55,3.57,13.78.08,30.56-1.25,6-16.46,42.42-24.97,56.57-7.12,11.84-21.04,25.94-31.2,36.23-2.57,2.6-4.79,4.85-6.52,6.69-7.83,8.29-15.03,22.28-15.1,22.42l-.31.54c-3.73,5.77-9.85,16.8-10.42,21.84-1,8.87.91,15.87,5.69,20.79,6.9,7.11,20.34,10.04,38.85,8.5,10.12-.84,17.73-4.57,23.27-11.38,14.69-18.04,10.45-52.94,9.06-64.41-.41-3.37-.57-4.7-.42-5.93.02-.31.03-1.21.04-2.01.13-9.65.54-39,16.39-67.93,9.07-16.54,21.71-30.13,37.58-40.37,19.12-12.34,43.08-19.9,71.22-22.47,26.68-2.44,50.99-.03,72.26,7.16,18.25,6.17,34.38,15.87,47.93,28.84,17.18,16.44,26.85,34.97,31.94,47.61,6.35,15.78,8.25,28.64,7.96,34.87-.61,12.91-15.64,86.29-72.26,123.48-21.62,14.2-46.38,21.3-74.06,21.3-23.97,0-50.12-5.32-78.33-15.98-12.96-4.9-21.83-16.06-24.97-31.45-2.59-12.69-1.2-27.98,3.83-41.95,9.54-26.48,28.26-40.06,46.58-33.78l.45.16.42.22c21.51,11.38,55.93,12.84,92.09,3.9,32.98-8.15,61.17-23.8,70.15-38.93,7.98-13.45-1.87-22.27-10.12-27.75-38.59-20.96-88.84-4.75-124.24,12.57-41.99,20.54-72.82,46.95-75.91,51.39-.34.49-.75,1.06-1.21,1.72-7.33,10.33-29.63,41.75-22.48,70.75,3.76,15.26,15.44,27.96,34.7,37.75,31.39,15.95,87.32,55.64,166.24,117.98,58.63,46.31,108.76,88.52,109.26,88.94l12.82,10.8ZM2043.45,549.47h135.82c-45.38-37.71-197.85-162.87-260.22-194.56-22.58-11.47-36.39-26.86-41.04-45.73-.63-2.56-1.08-5.13-1.36-7.68-.38.51-.76,1-1.16,1.49-7.65,9.39-18.33,14.72-31.75,15.85-22.61,1.89-38.98-2.2-48.65-12.17-4.89-5.04-10.34-14.03-9.27-28.59-1.6,2.98-3.45,6.16-5.58,9.56-6.22,9.92-7.1,21.24-2.68,34.63,3.72,11.28,11.18,23.67,22.17,36.84,19.08,22.88,42.17,40,42.41,40.17l201.34,150.19ZM1727.18,549.47h186.43c-5.5-7.47-18.45-22.43-48.94-51.72-33.81-32.48-74.39-68.46-95.56-87.01-25.97-22.76-39.54-51.91-39.25-84.29.22-24.05,8.5-50.22,22.15-70.01,12.2-17.68,27.3-25.7,36.71-19.5,3,1.97,7.5,6.94,5.63,18.49,1.73-3.06,3.21-5.4,3.79-6.31,1.15-2.21,8.49-16.02,16.95-24.97,1.82-1.93,4.09-4.22,6.71-6.88,9.18-9.3,23.06-23.36,29.42-33.94,8.1-13.47,22.53-48.32,23.48-52.75,1.76-8.46,1.4-15.87.85-20.37h-148.38v439.28ZM1952.08,243.03c-8.9,0-19.49,7.89-26.42,27.12-8.07,22.42-5.93,50.29,13.95,57.8,56.9,21.5,104.46,20.12,141.34-4.1,51.65-33.92,66.22-102.6,66.75-113.83.18-3.75-1.08-14.78-7.09-29.72-4.64-11.53-13.44-28.4-29.04-43.33-27.06-25.9-64.27-36.88-110.61-32.65-47.64,4.35-81.01,23.37-99.18,56.54-14.39,26.26-14.77,53.33-14.89,62.22-.02,1.41-.03,2.26-.09,2.94.04.59.22,2.05.38,3.36.57,4.7,1.46,12,1.72,20.45,5.08-9.58,10.44-17.13,13.48-21.41.44-.62.83-1.17,1.15-1.63,5.04-7.24,38.54-34.82,80.58-55.39,38.06-18.62,92.5-35.85,135.72-12.19l.43.26c9.43,6.23,15.38,13.34,17.7,21.13,2.22,7.49.98,15.52-3.59,23.22-10.87,18.32-40.65,35.4-77.74,44.57-39.32,9.72-75.83,8-100.28-4.71-1.36-.42-2.8-.64-4.28-.64ZM1886.76,226.47s0,0,0,0c0,0,0,0,0,0ZM1886.8,225.86h0s0,0,0,0ZM1874.63,224.82s0,.02,0,.03c0-.01,0-.02,0-.03Z"/>
    </g>
  </g>
</svg>