<?xml version="1.0" encoding="UTF-8"?>
<svg id="Layer_9" xmlns="http://www.w3.org/2000/svg" viewBox="0 0 630 630">
  <defs>
    <style>
      .cls-1 {
        fill: #7790ed;
      }
    </style>
  </defs>
  <path class="cls-1" d="M19.89,92.24v452.39h122.42l9.52-378.1c.16-6.28,1.48-12.47,3.9-18.27,5.06-12.1,15.46-30.61,32.07-31.93,24.89-1.98,51.83-.73,44.53,50.37-7.3,51.1-34.75,204.94,24.6,223.29,59.35,18.35,165.93,30.76,170.31-41.51s-71.17-162.79-73-174.69c-1.46-9.49,93.44-103.45,129.94-35.56,36.5,67.89,8.95,406.4,8.95,406.4h117.61s1.98-351.49-6.84-377.93c-8.76-26.28-32.51-76.65-132.69-74.46s-194.17,70.66-166.61,96.36c41.33,38.54,62.05,161.12,31.39,191.78,0,0-24.74,29.94-51.83-28.99-31.39-68.29,48.86-184.31-48.91-237.25-87.98-47.64-214.62-24.3-215.35-21.9Z"/>
  <path class="cls-1" d="M611.06,544.95h-118.28l.03-.35c.07-.85,6.91-85.69,9.21-177.73,3.04-121.77-3.23-200.79-18.13-228.5-6.44-11.99-15.16-19.63-25.9-22.71-9.28-2.66-20.11-1.96-32.19,2.08-21,7.03-40.07,22.1-49.56,30.45-13.49,11.87-22.11,22.79-21.69,25.53.45,2.94,5.72,11.11,13,22.42,22.12,34.33,63.28,98.24,60.01,152.34-1.09,17.9-8.54,31.76-22.15,41.18-15.98,11.06-39.93,15.95-71.17,14.56-24.01-1.07-52.22-6.15-77.4-13.94-23.93-7.4-36.54-37.74-37.48-90.18-.77-43.34,6.55-92.44,10.93-121.78.64-4.31,1.23-8.23,1.72-11.68,2.89-20.26.67-33.97-6.8-41.92-8.92-9.49-23.97-9.15-37.38-8.08-16.67,1.33-27.08,20.45-31.8,31.74-2.41,5.77-3.72,11.88-3.88,18.15l-9.53,378.42H19.57V92.14c.07-.19.26-.34.7-.52,4.62-1.9,37.18-7.78,78.94-7.53,37.47.22,91.51,5.56,136.19,29.75,60.52,32.77,53.07,89.48,45.86,144.33-4.52,34.46-8.8,67,3.19,93.07,10.36,22.53,21.51,34.73,33.16,36.25,10.76,1.4,18.06-7.24,18.13-7.33,9.88-9.88,15.05-30.3,14.57-57.53-.79-45.46-18.19-107.94-45.93-133.81-5.13-4.78-6.3-11.32-3.41-18.9,5.96-15.62,28.61-34.76,59.11-49.96,34.7-17.28,74.16-27.25,111.13-28.06,43.58-.95,77.5,8.01,100.84,26.62,19.72,15.74,27.8,34.96,32.17,48.06,8.73,26.19,6.87,374.52,6.86,378.04v.32ZM493.48,544.31h116.94c.07-12.36,1.76-351.76-6.82-377.51-4.34-13.02-12.37-32.13-31.96-47.76-23.21-18.52-57.01-27.43-100.42-26.48-81.93,1.79-158.21,47.6-169.65,77.6-2.83,7.43-1.74,13.55,3.25,18.2,12.66,11.8,24.34,32.63,32.91,58.65,7.99,24.26,12.81,51.82,13.22,75.62.48,27.4-4.76,47.99-14.74,57.97-.05.06-6.48,7.7-16.24,7.7-.8,0-1.61-.05-2.45-.16-11.88-1.55-23.2-13.87-33.66-36.62-12.06-26.24-7.78-58.88-3.24-93.43,7.18-54.63,14.59-111.12-45.53-143.68-25.03-13.56-69.35-29.68-138.4-29.68-.26,0-.51,0-.77,0-43,.07-73.84,6.34-75.71,7.62v451.95h121.78l9.51-377.79c.16-6.35,1.48-12.53,3.93-18.38,4.78-11.42,15.33-30.78,32.34-32.13,13.56-1.08,28.79-1.42,37.9,8.28,7.61,8.1,9.89,21.99,6.97,42.45-.49,3.45-1.08,7.37-1.72,11.69-4.37,29.32-11.7,78.38-10.92,121.67.93,52.13,13.39,82.27,37.02,89.57,25.13,7.77,53.29,12.84,77.24,13.91,31.11,1.39,54.92-3.47,70.78-14.45,13.44-9.3,20.8-22.99,21.88-40.69,3.27-53.89-37.83-117.68-59.9-151.95-7.6-11.8-12.62-19.59-13.09-22.67-.51-3.32,9.31-15.04,21.9-26.11,9.53-8.39,28.67-23.51,49.78-30.58,12.21-4.09,23.17-4.79,32.57-2.09,10.92,3.13,19.76,10.88,26.29,23.02,8.35,15.53,14.01,46.57,16.84,92.27,2.26,36.53,2.72,82.47,1.37,136.55-2.22,89.06-8.7,171.37-9.18,177.41Z"/>
</svg>