<?xml version="1.0" encoding="UTF-8"?>
<svg id="Layer_11" xmlns="http://www.w3.org/2000/svg" viewBox="0 0 630 630">
  <defs>
    <style>
      .cls-1 {
        fill: #7790ed;
      }
    </style>
  </defs>
  <path class="cls-1" d="M563.81,256.65c-10.08-10.92-35.98-40.15-41.13-56.94-9.33-30.44-.16-127.33-.16-127.33h-146.15s2.37,109.14,2.37,124.96,54.89,65.57,94.11,71.97c38.75,6.33,99.65,20.56,87,33.22-12.65,12.65-68.29,1.85-90.95,0-70.15-5.73-281.55-.79-281.55-.79l.36-229.35H49.85v487.97h137.87v-243.98s244.02-17,214.57,0c-29.45,17-25.91,56.5-25.91,56.5v187.48h149.47s.79-138.4-1.58-177.16c-2.37-38.75,9.49-48.24,39.54-61.12,30.05-12.88,9.49-55.14,0-65.42Z"/>
  <path class="cls-1" d="M564.5,255.96c-11.16-12.1-22.03-24.7-31.23-38.37-4.05-6.01-8.1-12.41-10.03-19.47-1.49-5.43-2.17-11.08-2.68-16.67-2.61-28.7-.81-57.96,1.16-86.64.51-7.48,1.07-14.97,1.78-22.44.05-.52-.48-.97-.97-.97h-146.15c-.51,0-.98.44-.97.97.36,16.48.7,32.96,1.04,49.45.48,23.3,1.01,46.59,1.29,69.89.03,2.61-.25,5.43.36,7.99,1,4.24,3.72,8.12,6.27,11.56,8.47,11.38,19.35,21.08,30.51,29.74,12.64,9.81,26.4,18.62,41.33,24.51,6.94,2.74,13.94,4.27,21.27,5.53,8.57,1.48,17.1,3.13,25.59,4.99,15.55,3.4,31.69,7,46.24,13.66,3.6,1.65,9.18,3.94,10.93,7.85,1.61,3.58-3.08,6.13-5.76,7.21-5.74,2.33-12.28,2.69-18.4,2.82-7.75.17-15.52-.33-23.24-1.02-14.34-1.29-28.56-3.64-42.89-4.92-22.78-2.03-45.77-2.24-68.62-2.56-29.35-.4-58.7-.36-88.04-.17-26.64.18-53.29.51-79.93.95-14.66.24-29.31.51-43.97.84-.68.02-1.35.03-2.03.05l.97.97c.01-7.63.02-15.25.04-22.88.03-18.22.06-36.44.08-54.67.03-22.12.07-44.25.1-66.37.03-19.05.06-38.11.09-57.16,0-6.31.02-12.61.03-18.92,0-2.91.36-6.07.01-8.97-.01-.12,0-.26,0-.39,0-.52-.44-.97-.97-.97H49.85c-.52,0-.97.44-.97.97v468.14c0,6.33-.1,12.68,0,19.01,0,.27,0,.55,0,.82,0,.52.44.97.97.97h137.87c.52,0,.97-.44.97-.97v-240.28c0-.9.3-2.44,0-3.29-.04-.11,0-.29,0-.41l-.97.97c7.76-.54,15.53-1.03,23.3-1.52,18.34-1.14,36.68-2.18,55.03-3.1,21.68-1.08,43.37-2.01,65.08-2.54,17.83-.44,35.75-.83,53.57.16,5.1.28,10.36.55,15.35,1.76,1.17.28,2.69.75,3.39,1.27.54.4.51.48.11.88-.44.45-.79.7-1.32,1.05-2.61,1.68-5.18,3.28-7.56,5.3-5.29,4.51-9.5,10.21-12.52,16.46-4.58,9.49-6.69,20.15-6.85,30.66-.12,7.71.12,15.47.12,23.18v169.47c0,.52.44.97.97.97h149.47c.52,0,.96-.44.97-.97.07-12.9.1-25.81.12-38.71.03-26.1-.01-52.2-.26-78.3-.12-12.2-.27-24.4-.56-36.59-.24-9.92-.92-19.83-1.13-29.74-.27-12.5.99-26.07,9.58-35.87,3.79-4.33,8.55-7.64,13.53-10.45,6.14-3.47,12.86-5.74,19.02-9.13,22.63-12.47,12.27-44.39.84-61.14-1.05-1.55-2.18-3.05-3.44-4.43-.84-.92-2.2.45-1.37,1.37,6.91,7.59,11.45,18.29,13.88,28.13,2.93,11.85,2.26,25.78-8.87,33.19-5.76,3.83-12.74,5.91-18.85,9.16-4.97,2.65-9.81,5.7-13.89,9.63-8.41,8.1-11.54,19.19-12.22,30.57-.65,10.75.51,21.63.82,32.38.33,11.54.51,23.09.64,34.63.31,26.23.37,52.47.36,78.71,0,10.15-.02,20.31-.06,30.46-.01,3.34-.02,6.68-.04,10.02,0,1.72-.31,3.72-.03,5.42.04.23,0,.49,0,.72l.97-.97h-149.47l.97.97v-94.77c0-21.52,0-43.04,0-64.57,0-9.39.3-18.83,0-28.22-.25-7.53.27-14.95,2.06-22.3,1.56-6.4,4.01-12.59,7.57-18.15,4.1-6.4,9.51-11.23,15.93-15.22,1.82-1.13,4.11-3.22,1.84-5.19-2.5-2.17-7.12-2.35-10.21-2.73-15.47-1.89-31.32-1.49-46.86-1.29-21.6.27-43.2,1.08-64.78,2.06-20.04.91-40.07,1.99-60.1,3.18-11.17.67-22.34,1.37-33.51,2.13-.52.04-1.04.07-1.56.11s-.97.41-.97.97v240.28c0,.9-.3,2.44,0,3.29.04.11,0,.29,0,.41l.97-.97H49.85l.97.97V79.72c0-2.1.29-4.44,0-6.53-.04-.26,0-.55,0-.82l-.97.97h137.87l-.97-.97c-.01,7.63-.02,15.25-.04,22.88-.03,18.22-.06,36.44-.08,54.67l-.1,66.37c-.03,19.05-.06,38.11-.09,57.16,0,6.31-.02,12.61-.03,18.92,0,2.91-.36,6.07-.01,8.97.01.12,0,.26,0,.39,0,.51.44.98.97.97,10.44-.24,20.89-.44,31.33-.63,24.94-.45,49.88-.81,74.82-1.05,29.84-.28,59.69-.42,89.54-.19,25.16.19,50.36.48,75.49,1.94,27.15,1.58,54.28,8.21,81.56,6.58,5.56-.33,11.48-.98,16.55-3.46,2.85-1.39,6.35-4.01,5.81-7.62-.53-3.61-4.44-6.08-7.3-7.76-5.44-3.18-11.5-5.35-17.47-7.33-16.44-5.45-33.5-9.14-50.5-12.35-7.66-1.44-15.5-2.32-22.97-4.57s-14.96-5.66-21.97-9.48c-14.64-7.98-28.25-18.05-40.44-29.41-4.99-4.64-9.78-9.54-14.04-14.86-2.94-3.66-6.05-7.76-7.51-12.29-.85-2.62-.55-5.52-.58-8.24-.05-4.32-.12-8.65-.19-12.97-.21-12.37-.45-24.74-.69-37.12-.43-21.88-.89-43.77-1.36-65.65-.03-1.29-.06-2.59-.08-3.88l-.97.97h146.15l-.97-.97c-1.91,20.24-3.12,40.59-3.72,60.9-.45,15.03-.61,30.14.53,45.15.44,5.87,1.07,11.78,2.34,17.53,1.43,6.44,4.35,12.25,7.8,17.84,9.7,15.74,22.11,29.96,34.61,43.52.84.92,2.21-.45,1.37-1.37Z"/>
</svg>