<?xml version="1.0" encoding="UTF-8"?>
<svg id="Layer_3" xmlns="http://www.w3.org/2000/svg" viewBox="0 0 630 630">
  <defs>
    <style>
      .cls-1 {
        fill: #7790ed;
      }
    </style>
  </defs>
  <path class="cls-1" d="M85.29,558.04V87.81h159.64s3.24,12.69,0,28.89c-1.06,5.32-15.86,42.44-24.22,56.92s-28.41,34.21-36.93,43.61c-8.52,9.39-16.1,24.82-16.1,24.82,0,0-10.42,16.77-11.36,25.49-.95,8.72-2.84,42.27,51.14,37.57,53.98-4.7,36.93-86.54,37.48-90.7.79-5.99-7.18-120.63,119.72-132.7,126.89-12.08,154.36,95.94,153.41,116.73-.95,20.8-38.86,198.33-216.37,128.47-43.84-17.25-15.69-112.82,21.3-99.62,68.18,37.57,224.43-30.86,158.14-76.48-77.65-44.28-199.81,55.68-208.33,68.43-8.52,12.75-61.55,84.53,13.26,124.11s274.33,214.68,274.33,214.68h-154.72l-202.94-157.66s-94.78-72.76-63.45-124.78c30.3-50.32,3.79-58.37-17.99-25.49-21.78,32.87-39.77,101.3,16.1,152.29,58.31,53.21,148.67,138.87,150.57,155.64H85.29Z"/>
  <path class="cls-1" d="M577.14,564.41h-173.51l-204.56-158.92c-4.03-3.09-98.93-76.89-64.97-133.28,14.74-24.48,13.06-34.45,12.12-35.4-1.3-.65-9.99,1.98-19.89,16.92-12.32,18.6-19.79,43.19-19.99,65.79-.26,30.33,11.54,56.61,35.08,78.09,21.46,19.58,62.54,57.53,96.65,91.69,54.44,54.53,55.51,63.97,55.96,68.01l.8,7.12H79.17V81.44h170.47l1.21,4.74c.15.58,3.57,14.35.08,31.83-1.25,6.25-16.46,44.17-24.97,58.91-7.12,12.33-21.04,27.01-31.2,37.74-2.57,2.71-4.79,5.05-6.52,6.96-7.83,8.63-15.03,23.2-15.1,23.35l-.31.56c-3.73,6.01-9.85,17.49-10.42,22.75-1,9.24.91,16.53,5.69,21.65,6.9,7.4,20.34,10.46,38.85,8.85,10.12-.88,17.73-4.76,23.27-11.85,14.69-18.79,10.45-55.14,9.06-67.08-.41-3.51-.57-4.89-.42-6.18.02-.32.03-1.26.04-2.09.13-10.05.54-40.62,16.39-70.75,9.07-17.23,21.71-31.38,37.58-42.05,19.12-12.85,43.08-20.72,71.22-23.4,26.68-2.54,50.99-.03,72.26,7.45,18.25,6.42,34.38,16.53,47.93,30.03,17.18,17.13,26.85,36.41,31.94,49.58,6.35,16.43,8.25,29.83,7.96,36.31-.61,13.44-15.64,89.87-72.26,128.59-21.62,14.79-46.38,22.18-74.06,22.18-23.97,0-50.12-5.55-78.33-16.64-12.96-5.1-21.83-16.73-24.97-32.75-2.59-13.22-1.2-29.14,3.83-43.69,9.54-27.58,28.26-41.72,46.58-35.18l.45.16.42.23c21.51,11.85,55.93,13.37,92.09,4.06,32.98-8.49,61.17-24.78,70.15-40.54,7.98-14.01-1.87-23.19-10.12-28.9-38.59-21.83-88.84-4.94-124.24,13.09-41.99,21.39-72.82,48.9-75.91,53.52-.34.51-.75,1.11-1.21,1.79-7.33,10.75-29.63,43.48-22.48,73.69,3.76,15.89,15.44,29.12,34.7,39.31,31.39,16.61,87.32,57.94,166.24,122.86,58.63,48.23,108.76,92.19,109.26,92.62l12.82,11.25ZM407.69,551.66h135.82c-45.38-39.27-197.85-169.62-260.22-202.62-22.58-11.95-36.39-27.97-41.04-47.62-.63-2.67-1.08-5.34-1.36-8-.38.53-.76,1.04-1.16,1.55-7.65,9.78-18.33,15.34-31.75,16.5-22.61,1.97-38.98-2.3-48.65-12.67-4.89-5.25-10.34-14.61-9.27-29.77-1.6,3.1-3.45,6.42-5.58,9.96-6.22,10.33-7.1,22.12-2.68,36.06,3.72,11.74,11.18,24.65,22.17,38.37,19.08,23.83,42.17,41.66,42.41,41.83l201.34,156.41ZM91.41,551.66h186.43c-5.5-7.78-18.45-23.36-48.94-53.86-33.81-33.82-74.39-71.29-95.56-90.62-25.97-23.7-39.54-54.06-39.25-87.79.22-25.05,8.5-52.3,22.15-72.91,12.2-18.41,27.3-26.76,36.71-20.31,3,2.05,7.5,7.23,5.63,19.26,1.73-3.18,3.21-5.62,3.79-6.58,1.15-2.3,8.49-16.68,16.95-26.01,1.82-2.01,4.09-4.4,6.71-7.16,9.18-9.69,23.06-24.32,29.42-35.35,8.1-14.03,22.53-50.33,23.48-54.94,1.76-8.81,1.4-16.53.85-21.22H91.41v457.48ZM316.32,232.52c-8.9,0-19.49,8.21-26.42,28.24-8.07,23.34-5.93,52.38,13.95,60.2,56.9,22.39,104.46,20.95,141.34-4.27,51.65-35.32,66.22-106.85,66.75-118.54.18-3.9-1.08-15.39-7.09-30.95-4.64-12-13.44-29.58-29.04-45.13-27.06-26.97-64.27-38.41-110.61-34-47.64,4.53-81.01,24.34-99.18,58.88-14.39,27.35-14.77,55.54-14.89,64.8-.02,1.47-.03,2.35-.09,3.06.04.62.22,2.14.38,3.5.57,4.89,1.46,12.49,1.72,21.3,5.08-9.98,10.44-17.84,13.48-22.3.44-.65.83-1.22,1.15-1.7,5.04-7.54,38.54-36.26,80.58-57.68,38.06-19.39,92.5-37.34,135.72-12.7l.43.27c9.43,6.49,15.38,13.89,17.7,22,2.22,7.8.98,16.16-3.59,24.18-10.87,19.08-40.65,36.87-77.74,46.41-39.32,10.12-75.83,8.33-100.28-4.91-1.36-.44-2.8-.67-4.28-.67ZM251,215.28s0,0,0,0c0,0,0,0,0,0ZM251.04,214.64h0s0,0,0,0ZM238.87,213.56s0,.02,0,.04c0-.01,0-.02,0-.04Z"/>
</svg>