<svg width="49" height="29" viewBox="0 0 49 29" fill="none" xmlns="http://www.w3.org/2000/svg">
<path d="M7.76245 0.708496L13.7918 13.8366L19.7971 0.708496H25.8504L13.7439 25.6928L1.73315 0.708496H7.76245Z" fill="white"/>
<path d="M16.6274 0.708495H22.0107V2.86852C23.0475 1.78051 23.9328 1.0445 24.6665 0.660492C25.4481 0.260488 26.429 0.0604858 27.6094 0.0604858C30.2412 0.0604858 32.3227 1.2125 33.854 3.51653C35.5448 1.2125 37.8337 0.0604858 40.7207 0.0604858C45.9684 0.0604858 48.5923 3.25252 48.5923 9.63661V24.0848H43.185V11.1006C43.185 8.86059 42.9139 7.27655 42.3716 6.34855C41.8133 5.40452 40.8962 4.93256 39.6201 4.93256C38.1367 4.93256 37.0521 5.49256 36.3662 6.61255C35.6963 7.73259 35.3613 9.5326 35.3613 12.0126V24.0848H29.9541V11.1726C29.9541 7.01255 28.7578 4.93256 26.3652 4.93256C24.8499 4.93256 23.7414 5.50057 23.0395 6.63658C22.3537 7.7726 22.0107 9.5646 22.0107 12.0126V24.0848H16.6274V0.708495Z" fill="white"/>
<path d="M33.542 20.9244L31.1734 16.4603C32.6089 15.7563 33.3267 14.8843 33.3267 13.8443C33.3267 13.3483 33.1593 12.9243 32.8243 12.5723C32.5053 12.2203 32.0906 12.0443 31.5801 12.0443C30.6869 12.0443 29.8017 13.0843 28.9244 15.1643C27.6962 18.0284 26.5637 19.9564 25.5269 20.9484C24.4901 21.9404 23.0945 22.4364 21.3399 22.4364C19.0909 22.4364 17.2087 21.6044 15.6934 19.9404C14.2579 18.3244 13.5401 16.3723 13.5401 14.0843C13.5401 10.1642 15.4462 7.38821 19.2584 5.7562L21.3877 10.3642C20.2712 11.0043 19.5614 11.4923 19.2584 11.8283C18.6523 12.4843 18.3492 13.2683 18.3492 14.1803C18.3492 16.0043 19.1786 16.9163 20.8375 16.9163C21.7945 16.9163 22.6877 16.2123 23.5171 14.8043C23.7883 14.2603 24.0515 13.7163 24.3067 13.1723C24.5619 12.6283 24.8251 12.0763 25.0963 11.5163C25.8619 9.94827 26.6275 8.84425 27.3931 8.20424C28.3661 7.38821 29.6182 6.98024 31.1495 6.98024C33.1752 6.98024 34.85 7.67624 36.1739 9.06824C37.4978 10.4923 38.1598 12.2203 38.1598 14.2523C38.1598 17.2443 36.6205 19.4684 33.542 20.9244Z" fill="white"/>
</svg>
